<?xml version="1.0" encoding="UTF-8"?>
<!DOCTYPE svg PUBLIC "-//W3C//DTD SVG 1.1//EN" "http://www.w3.org/Graphics/SVG/1.1/DTD/svg11.dtd">
<svg xmlns="http://www.w3.org/2000/svg" version="1.1" width="1733px" height="1867px" style="shape-rendering:geometricPrecision; text-rendering:geometricPrecision; image-rendering:optimizeQuality; fill-rule:evenodd; clip-rule:evenodd" xmlns:xlink="http://www.w3.org/1999/xlink">
<g><path style="opacity:1" fill="#03b8e5" d="M 837.5,-0.5 C 856.5,-0.5 875.5,-0.5 894.5,-0.5C 1029.73,10.362 1140.9,67.362 1228,170.5C 1287.37,244.289 1321.7,328.623 1331,423.5C 1332.41,459.814 1332.91,496.147 1332.5,532.5C 1425.17,532.333 1517.83,532.5 1610.5,533C 1679.22,543.221 1719.89,582.388 1732.5,650.5C 1732.5,964.833 1732.5,1279.17 1732.5,1593.5C 1720.31,1699.42 1667.98,1778.59 1575.5,1831C 1537.76,1850.86 1497.76,1862.7 1455.5,1866.5C 1062.83,1866.5 670.167,1866.5 277.5,1866.5C 169.035,1853.83 87.868,1800.16 34,1705.5C 14.8702,1668.63 3.37016,1629.63 -0.5,1588.5C -0.5,1275.83 -0.5,963.167 -0.5,650.5C 12.1147,582.388 52.7814,543.221 121.5,533C 214.166,532.5 306.833,532.333 399.5,532.5C 399.09,496.147 399.59,459.814 401,423.5C 414.63,293.716 471.13,187.216 570.5,104C 648.403,41.41 737.403,6.57665 837.5,-0.5 Z M 842.5,133.5 C 960.972,129.17 1057.14,172.836 1131,264.5C 1170.24,316.871 1192.58,375.871 1198,441.5C 1198.5,471.832 1198.67,502.165 1198.5,532.5C 976.833,532.5 755.167,532.5 533.5,532.5C 533.333,502.165 533.5,471.832 534,441.5C 546.083,324.531 602.25,236.031 702.5,176C 746.244,151.902 792.911,137.735 842.5,133.5 Z M 133.5,666.5 C 621.833,666.5 1110.17,666.5 1598.5,666.5C 1598.67,973.5 1598.5,1280.5 1598,1587.5C 1587.92,1649.91 1554.09,1694.08 1496.5,1720C 1481.05,1726.19 1465.05,1730.19 1448.5,1732C 1060.17,1732.67 671.833,1732.67 283.5,1732C 216.903,1721.62 170.403,1685.46 144,1623.5C 138.938,1610.25 135.605,1596.59 134,1582.5C 133.5,1277.17 133.333,971.834 133.5,666.5 Z"/></g>
<g><path style="opacity:1" fill="#03b8e5" d="M 458.5,732.5 C 494.996,731.484 519.163,748.151 531,782.5C 531.958,787.123 532.625,791.79 533,796.5C 533.333,828.167 533.667,859.833 534,891.5C 544.979,999.344 594.813,1083.84 683.5,1145C 772.949,1200.93 868.283,1213.6 969.5,1183C 1064.16,1149.68 1131.99,1087.18 1173,995.5C 1186.8,962.17 1195.13,927.504 1198,891.5C 1198.33,859.833 1198.67,828.167 1199,796.5C 1203.03,760.472 1222.86,739.305 1258.5,733C 1292.28,731.126 1315.78,745.626 1329,776.5C 1330.31,780.42 1331.31,784.42 1332,788.5C 1332.67,824.5 1332.67,860.5 1332,896.5C 1319.91,1041.23 1256.41,1157.07 1141.5,1244C 1037.17,1317.66 921.503,1345.66 794.5,1328C 651.405,1302.77 541.571,1228.93 465,1106.5C 426.637,1041.73 404.971,971.729 400,896.5C 399.333,860.5 399.333,824.5 400,788.5C 407.001,756.664 426.501,737.997 458.5,732.5 Z"/></g>
</svg>
