<?xml version="1.0" encoding="UTF-8"?>
<!DOCTYPE svg PUBLIC "-//W3C//DTD SVG 1.1//EN" "http://www.w3.org/Graphics/SVG/1.1/DTD/svg11.dtd">
<svg xmlns="http://www.w3.org/2000/svg" version="1.1" width="1867px" height="1867px" style="shape-rendering:geometricPrecision; text-rendering:geometricPrecision; image-rendering:optimizeQuality; fill-rule:evenodd; clip-rule:evenodd" xmlns:xlink="http://www.w3.org/1999/xlink">
<g><path style="opacity:1" fill="#03b8e5" d="M 906.5,-0.5 C 924.167,-0.5 941.833,-0.5 959.5,-0.5C 1082.92,10.7831 1182.09,65.4498 1257,163.5C 1312.56,241.197 1337.56,327.863 1332,423.5C 1393.76,460.597 1442.76,510.264 1479,572.5C 1483.09,581.022 1487.43,589.355 1492,597.5C 1511.46,556.327 1523.13,512.993 1527,467.5C 1531.38,420.94 1533.38,374.274 1533,327.5C 1538.95,289.222 1561.28,268.555 1600,265.5C 1635.91,268.408 1657.91,287.408 1666,322.5C 1668.53,392.94 1664.2,462.94 1653,532.5C 1638.77,616.946 1602.77,690.28 1545,752.5C 1541.3,756.535 1537.3,760.202 1533,763.5C 1533.46,842.153 1533.63,920.82 1533.5,999.5C 1626.52,999.02 1719.52,999.52 1812.5,1001C 1841.43,1008.43 1859.43,1026.59 1866.5,1055.5C 1866.5,1062.83 1866.5,1070.17 1866.5,1077.5C 1859.79,1107.37 1841.46,1125.87 1811.5,1133C 1718.83,1133.5 1626.17,1133.67 1533.5,1133.5C 1534.09,1173.87 1533.26,1214.2 1531,1254.5C 1525.67,1312.49 1512.17,1368.49 1490.5,1422.5C 1519.29,1449.12 1546.12,1477.45 1571,1507.5C 1643.62,1601.29 1673.95,1707.29 1662,1825.5C 1651.67,1847.9 1634.5,1861.56 1610.5,1866.5C 1603.17,1866.5 1595.83,1866.5 1588.5,1866.5C 1559.4,1860.23 1541.23,1842.57 1534,1813.5C 1538.04,1706.99 1501.38,1617.65 1424,1545.5C 1315.15,1693.77 1168.65,1777.94 984.5,1798C 811.977,1809.72 660.977,1759.05 531.5,1646C 498.384,1615.23 468.551,1581.73 442,1545.5C 364.62,1617.66 327.953,1706.99 332,1813.5C 324.767,1842.57 306.601,1860.23 277.5,1866.5C 270.167,1866.5 262.833,1866.5 255.5,1866.5C 225.18,1859.68 206.68,1841.01 200,1810.5C 194.726,1685.63 233.06,1576.63 315,1483.5C 334.679,1462.65 354.846,1442.32 375.5,1422.5C 349.894,1358.64 335.727,1292.3 333,1223.5C 332.5,1193.5 332.333,1163.5 332.5,1133.5C 239.833,1133.67 147.166,1133.5 54.5,1133C 24.5399,1125.87 6.20661,1107.37 -0.5,1077.5C -0.5,1070.17 -0.5,1062.83 -0.5,1055.5C 6.5731,1026.59 24.5731,1008.43 53.5,1001C 146.476,999.52 239.476,999.02 332.5,999.5C 332.333,925.499 332.5,851.499 333,777.5C 333.247,771.137 333.747,764.804 334.5,758.5C 320.142,743.642 306.309,728.309 293,712.5C 248.032,653.327 220.366,586.66 210,512.5C 201.191,449.465 197.857,386.132 200,322.5C 208.092,287.408 230.092,268.408 266,265.5C 304.719,268.555 327.052,289.222 333,327.5C 332.512,376.641 334.846,425.641 340,474.5C 344.632,518.376 357.298,559.71 378,598.5C 415.145,528.852 467.312,473.185 534.5,431.5C 526.117,300.471 569.783,190.304 665.5,101C 734.44,40.6161 814.773,6.78277 906.5,-0.5 Z M 912.5,133.5 C 1023.19,129.917 1107.36,174.917 1165,268.5C 1181.64,298.741 1192.47,330.908 1197.5,365C 1085.91,336.478 972.575,326.478 857.5,335C 793.189,339.263 730.356,351.096 669,370.5C 679.299,286.701 719.466,221.534 789.5,175C 827.288,151.46 868.288,137.627 912.5,133.5 Z M 897.5,466.5 C 964.299,464.342 1030.63,468.842 1096.5,480C 1152.1,489.643 1204.77,507.643 1254.5,534C 1342.94,584.965 1390.78,661.798 1398,764.5C 1399.64,916.155 1399.98,1067.82 1399,1219.5C 1389.4,1364.55 1327.9,1481.72 1214.5,1571C 1150.95,1618.93 1079.62,1649.09 1000.5,1661.5C 999.667,1325.83 999.167,990.167 999,654.5C 992.062,624.562 973.562,606.395 943.5,600C 909.827,596.748 885.66,610.248 871,640.5C 869.046,644.981 867.713,649.648 867,654.5C 865.674,990.151 865.007,1325.82 865,1661.5C 719.489,1635.88 608.156,1560.55 531,1435.5C 494.937,1373.64 473.937,1306.97 468,1235.5C 466.358,1084.18 466.024,932.845 467,781.5C 472.76,679.187 518.594,600.687 604.5,546C 654.803,515.783 708.803,494.783 766.5,483C 809.893,474.118 853.56,468.618 897.5,466.5 Z"/></g>
</svg>
