<?xml version="1.0" encoding="UTF-8"?>
<!DOCTYPE svg PUBLIC "-//W3C//DTD SVG 1.1//EN" "http://www.w3.org/Graphics/SVG/1.1/DTD/svg11.dtd">
<svg xmlns="http://www.w3.org/2000/svg" version="1.1" width="1467px" height="1867px" style="shape-rendering:geometricPrecision; text-rendering:geometricPrecision; image-rendering:optimizeQuality; fill-rule:evenodd; clip-rule:evenodd" xmlns:xlink="http://www.w3.org/1999/xlink">
<g><path style="opacity:1" fill="#03b8e5" d="M 244.5,-0.5 C 395.167,-0.5 545.833,-0.5 696.5,-0.5C 739.145,4.15809 776.812,20.3248 809.5,48C 1012.67,251.167 1215.83,454.333 1419,657.5C 1446.02,690.056 1461.85,727.39 1466.5,769.5C 1466.5,1053.5 1466.5,1337.5 1466.5,1621.5C 1454.06,1725.41 1400.73,1799.91 1306.5,1845C 1279.12,1856.43 1250.79,1863.59 1221.5,1866.5C 895.833,1866.5 570.167,1866.5 244.5,1866.5C 140.586,1854.06 66.0859,1800.73 21,1706.5C 9.5717,1679.12 2.40503,1650.79 -0.5,1621.5C -0.5,1162.5 -0.5,703.5 -0.5,244.5C 11.9364,140.586 65.2697,66.0859 159.5,21C 186.881,9.5717 215.214,2.40503 244.5,-0.5 Z M 251.5,133.5 C 389.5,133.5 527.5,133.5 665.5,133.5C 665.029,295.843 665.529,458.177 667,620.5C 677.63,697.963 718.463,752.797 789.5,785C 807.84,792.335 826.84,797.002 846.5,799C 1008.5,799.5 1170.5,799.667 1332.5,799.5C 1332.67,1071.17 1332.5,1342.83 1332,1614.5C 1324.59,1664.56 1298.09,1700.39 1252.5,1722C 1240.33,1727.21 1227.67,1730.54 1214.5,1732C 893.5,1732.67 572.5,1732.67 251.5,1732C 199.42,1723.89 162.92,1695.72 142,1647.5C 137.935,1636.84 135.268,1625.84 134,1614.5C 133.333,1160.17 133.333,705.833 134,251.5C 140.611,206.926 163.111,173.092 201.5,150C 217.328,141.557 233.995,136.057 251.5,133.5 Z M 799.5,228.5 C 945.299,373.799 1090.97,519.299 1236.5,665C 1109.5,665.667 982.5,665.667 855.5,665C 821.115,656.615 802.615,634.782 800,599.5C 799.5,475.834 799.333,352.167 799.5,228.5 Z"/></g>
</svg>
