<?xml version="1.0" encoding="UTF-8"?>
<!DOCTYPE svg PUBLIC "-//W3C//DTD SVG 1.1//EN" "http://www.w3.org/Graphics/SVG/1.1/DTD/svg11.dtd">
<svg xmlns="http://www.w3.org/2000/svg" version="1.1" width="2000px" height="1600px" style="shape-rendering:geometricPrecision; text-rendering:geometricPrecision; image-rendering:optimizeQuality; fill-rule:evenodd; clip-rule:evenodd" xmlns:xlink="http://www.w3.org/1999/xlink">
<g><path style="opacity:1" fill="#03b8e5" d="M 212.5,-0.5 C 331.5,-0.5 450.5,-0.5 569.5,-0.5C 606.271,3.47941 640.605,14.9794 672.5,34C 713.833,61.6667 755.167,89.3333 796.5,117C 809.981,125.383 824.647,130.383 840.5,132C 1154.5,132.333 1468.5,132.667 1782.5,133C 1859.72,140.172 1919.88,175.672 1963,239.5C 1983.26,272.107 1995.42,307.44 1999.5,345.5C 1999.5,692.5 1999.5,1039.5 1999.5,1386.5C 1988.49,1475.06 1943.15,1539.23 1863.5,1579C 1838.76,1589.77 1813.09,1596.6 1786.5,1599.5C 1261.83,1599.5 737.167,1599.5 212.5,1599.5C 123.936,1588.49 59.769,1543.15 20,1463.5C 9.23237,1438.76 2.39904,1413.09 -0.5,1386.5C -0.5,995.167 -0.5,603.833 -0.5,212.5C 10.5139,123.936 55.8473,59.769 135.5,20C 160.245,9.23237 185.911,2.39904 212.5,-0.5 Z M 220.5,133.5 C 334.167,133.333 447.834,133.5 561.5,134C 576.991,136.246 591.324,141.58 604.5,150C 644.833,177 685.167,204 725.5,231C 758.953,251.484 795.287,263.151 834.5,266C 1148.17,266.333 1461.83,266.667 1775.5,267C 1816.2,272.699 1844.36,294.533 1860,332.5C 1862.43,339.316 1864.1,346.316 1865,353.5C 1865.5,390.832 1865.67,428.165 1865.5,465.5C 1288.17,465.5 710.833,465.5 133.5,465.5C 133.333,383.833 133.5,302.166 134,220.5C 141.297,178.534 165.13,150.701 205.5,137C 210.646,135.875 215.646,134.709 220.5,133.5 Z M 133.5,599.5 C 710.833,599.5 1288.17,599.5 1865.5,599.5C 1865.67,859.167 1865.5,1118.83 1865,1378.5C 1857.7,1420.47 1833.87,1448.3 1793.5,1462C 1788.55,1463.26 1783.55,1464.26 1778.5,1465C 1518.83,1465.17 1259.17,1465.33 999.5,1465.5C 739.833,1465.33 480.167,1465.17 220.5,1465C 178.534,1457.7 150.701,1433.87 137,1393.5C 135.744,1388.55 134.744,1383.55 134,1378.5C 133.5,1118.83 133.333,859.167 133.5,599.5 Z"/></g>
</svg>
