<?xml version="1.0" encoding="UTF-8"?>
<!DOCTYPE svg PUBLIC "-//W3C//DTD SVG 1.1//EN" "http://www.w3.org/Graphics/SVG/1.1/DTD/svg11.dtd">
<svg xmlns="http://www.w3.org/2000/svg" version="1.1" width="2000px" height="1467px" style="shape-rendering:geometricPrecision; text-rendering:geometricPrecision; image-rendering:optimizeQuality; fill-rule:evenodd; clip-rule:evenodd" xmlns:xlink="http://www.w3.org/1999/xlink">
<g><path style="opacity:1" fill="#03b8e5" d="M 568.5,-0.5 C 587.167,-0.5 605.833,-0.5 624.5,-0.5C 648.269,1.79407 671.935,5.6274 695.5,11C 738.167,22.3333 780.833,33.6667 823.5,45C 942.246,72.6285 1060.91,72.2952 1179.5,44C 1220.78,32.7968 1262.11,21.7968 1303.5,11C 1327.07,5.62712 1350.73,1.79378 1374.5,-0.5C 1392.5,-0.5 1410.5,-0.5 1428.5,-0.5C 1541.13,6.90167 1635.3,52.235 1711,135.5C 1747.76,177.002 1779.09,222.335 1805,271.5C 1841.3,341.438 1870.97,414.105 1894,489.5C 1938.33,636.168 1970.33,785.502 1990,937.5C 1994.28,974.896 1997.45,1012.23 1999.5,1049.5C 1999.5,1076.5 1999.5,1103.5 1999.5,1130.5C 1997.48,1183.95 1988.31,1236.29 1972,1287.5C 1953.4,1344.07 1920.23,1389.9 1872.5,1425C 1837.86,1448.16 1799.86,1461.99 1758.5,1466.5C 1745.17,1466.5 1731.83,1466.5 1718.5,1466.5C 1675.6,1461.36 1635.6,1447.53 1598.5,1425C 1558.4,1399.14 1521.9,1368.64 1489,1333.5C 1467.72,1310.24 1447.38,1286.24 1428,1261.5C 1375.66,1201.95 1310.16,1165.12 1231.5,1151C 1191.52,1143.22 1151.18,1138.22 1110.5,1136C 1036.5,1131.39 962.501,1131.39 888.5,1136C 833.235,1138.37 778.901,1146.7 725.5,1161C 663.387,1178.79 610.887,1211.62 568,1259.5C 534.071,1303.44 496.571,1344.27 455.5,1382C 423.816,1409.86 388.483,1432.19 349.5,1449C 326.133,1458.01 302.133,1463.84 277.5,1466.5C 264.833,1466.5 252.167,1466.5 239.5,1466.5C 157.101,1457.23 95.6006,1416.56 55,1344.5C 29.8975,1296.44 13.8975,1245.44 7,1191.5C 3.49649,1164.77 0.996485,1138.11 -0.5,1111.5C -0.5,1083.5 -0.5,1055.5 -0.5,1027.5C 5.33638,920.806 19.8364,815.139 43,710.5C 64.838,605.325 94.1714,502.325 131,401.5C 158.055,329.053 192.722,260.72 235,196.5C 267.625,148.206 307.458,106.706 354.5,72C 418.807,27.3972 490.14,3.23058 568.5,-0.5 Z M 573.5,133.5 C 613.337,131.521 652.337,136.355 690.5,148C 744.096,164.316 798.43,177.649 853.5,188C 971.296,206.844 1088.3,202.844 1204.5,176C 1239.34,167.29 1274.01,157.956 1308.5,148C 1370.08,129.033 1431.75,128.699 1493.5,147C 1540.3,163.482 1580.13,190.316 1613,227.5C 1642.3,261.151 1667.3,297.818 1688,337.5C 1724.23,408.625 1753.23,482.625 1775,559.5C 1813.13,692.005 1840.79,826.672 1858,963.5C 1864.52,1017.99 1866.86,1072.65 1865,1127.5C 1863.69,1160.33 1859.02,1192.66 1851,1224.5C 1843.65,1257.06 1828.15,1284.89 1804.5,1308C 1765.27,1337.36 1723.93,1340.36 1680.5,1317C 1655.7,1303.26 1633.03,1286.6 1612.5,1267C 1599.97,1254.8 1587.8,1242.3 1576,1229.5C 1556.38,1205.54 1536.38,1181.87 1516,1158.5C 1450.78,1089.73 1371.61,1044.9 1278.5,1024C 1224.81,1012 1170.47,1004.66 1115.5,1002C 1038.17,997.407 960.834,997.407 883.5,1002C 814.902,1004.85 747.568,1015.51 681.5,1034C 591.278,1061.5 516.111,1111.33 456,1183.5C 427.368,1221.8 394.868,1256.64 358.5,1288C 343.362,1300.41 327.029,1311.08 309.5,1320C 241.525,1347.12 192.692,1327.29 163,1260.5C 146.508,1217.38 137.175,1172.71 135,1126.5C 131.502,1060.63 133.835,994.964 142,929.5C 162.55,765.634 200.55,605.968 256,450.5C 280.494,383.504 312.828,320.838 353,262.5C 375.793,230.707 402.96,203.207 434.5,180C 476.564,151.812 522.897,136.312 573.5,133.5 Z"/></g>
<g><path style="opacity:1" fill="#03b8e5" d="M 591.5,332.5 C 632.737,331.58 657.571,351.247 666,391.5C 666.5,438.499 666.667,485.499 666.5,532.5C 713.501,532.333 760.501,532.5 807.5,533C 834.591,537.089 853.091,551.922 863,577.5C 871.896,609.812 863.063,635.979 836.5,656C 828.156,661.115 819.156,664.448 809.5,666C 761.834,666.5 714.168,666.667 666.5,666.5C 666.667,713.835 666.5,761.168 666,808.5C 660.901,836.261 645.067,854.761 618.5,864C 580.853,872.026 553.686,858.86 537,824.5C 535.039,819.323 533.706,813.99 533,808.5C 532.5,761.168 532.333,713.835 532.5,666.5C 484.832,666.667 437.166,666.5 389.5,666C 362.258,660.478 344.091,644.645 335,618.5C 328.007,589.479 335.841,565.313 358.5,546C 368.392,538.923 379.392,534.59 391.5,533C 438.499,532.5 485.499,532.333 532.5,532.5C 532.333,485.165 532.5,437.832 533,390.5C 536.842,365.983 550.008,348.483 572.5,338C 578.817,335.675 585.15,333.842 591.5,332.5 Z"/></g>
<g><path style="opacity:1" fill="#03b8e5" d="M 1322.5,332.5 C 1358.89,329.942 1386.72,343.942 1406,374.5C 1425.16,415.386 1418.33,451.219 1385.5,482C 1353.07,504.86 1319.74,506.194 1285.5,486C 1251.54,459.448 1241.37,425.615 1255,384.5C 1268.43,355.224 1290.93,337.891 1322.5,332.5 Z"/></g>
<g><path style="opacity:1" fill="#03b8e5" d="M 1142.5,515.5 C 1185.83,515.067 1215,535.067 1230,575.5C 1239.49,616.368 1226.99,648.535 1192.5,672C 1150.86,692.244 1114.36,685.411 1083,651.5C 1059.39,616.252 1059.72,581.252 1084,546.5C 1099.45,528.36 1118.95,518.027 1142.5,515.5 Z"/></g>
<g><path style="opacity:1" fill="#03b8e5" d="M 1509.5,515.5 C 1550.26,515.113 1578.76,533.447 1595,570.5C 1607.4,613.978 1594.9,648.144 1557.5,673C 1518.55,691.204 1483.72,685.37 1453,655.5C 1433.53,631.508 1427.87,604.508 1436,574.5C 1448.51,539.815 1473.01,520.149 1509.5,515.5 Z"/></g>
<g><path style="opacity:1" fill="#03b8e5" d="M 1320.5,699.5 C 1364.21,696.256 1394.71,714.589 1412,754.5C 1423.95,796.592 1412.12,830.092 1376.5,855C 1349.66,869.18 1322.33,870.18 1294.5,858C 1258.68,836.925 1244.18,805.758 1251,764.5C 1260.94,728.626 1284.1,706.959 1320.5,699.5 Z"/></g>
</svg>
