<?xml version="1.0" encoding="UTF-8"?>
<!DOCTYPE svg PUBLIC "-//W3C//DTD SVG 1.1//EN" "http://www.w3.org/Graphics/SVG/1.1/DTD/svg11.dtd">
<svg xmlns="http://www.w3.org/2000/svg" version="1.1" width="1600px" height="1600px" style="shape-rendering:geometricPrecision; text-rendering:geometricPrecision; image-rendering:optimizeQuality; fill-rule:evenodd; clip-rule:evenodd" xmlns:xlink="http://www.w3.org/1999/xlink">
<g><path style="opacity:1" fill="#03b8e5" d="M 762.5,-0.5 C 787.167,-0.5 811.833,-0.5 836.5,-0.5C 1038.18,11.3997 1211.85,86.5664 1357.5,225C 1506.05,372.983 1586.72,552.149 1599.5,762.5C 1599.5,787.167 1599.5,811.833 1599.5,836.5C 1587.6,1038.18 1512.43,1211.85 1374,1357.5C 1226.02,1506.05 1046.85,1586.72 836.5,1599.5C 811.833,1599.5 787.167,1599.5 762.5,1599.5C 560.818,1587.6 387.152,1512.43 241.5,1374C 92.9492,1226.02 12.2825,1046.85 -0.5,836.5C -0.5,811.833 -0.5,787.167 -0.5,762.5C 11.3997,560.818 86.5664,387.152 225,241.5C 372.983,92.9492 552.149,12.2825 762.5,-0.5 Z M 766.5,133.5 C 950.77,127.741 1111.44,185.574 1248.5,307C 1381.22,430.962 1453.38,584.129 1465,766.5C 1471.25,950.792 1413.58,1111.46 1292,1248.5C 1168.04,1381.22 1014.87,1453.38 832.5,1465C 648.208,1471.25 487.542,1413.58 350.5,1292C 217.784,1168.04 145.617,1014.87 134,832.5C 127.749,648.208 185.416,487.542 307,350.5C 431.151,217.852 584.318,145.519 766.5,133.5 Z"/></g>
<g><path style="opacity:1" fill="#03b8e5" d="M 781.5,332.5 C 870.272,324.816 947.939,349.983 1014.5,408C 1077.27,467.655 1101.77,540.489 1088,626.5C 1079.72,673.712 1059.72,715.046 1028,750.5C 1006.57,773.61 983.071,794.11 957.5,812C 936.993,825.753 916.659,839.753 896.5,854C 874.451,870.706 857.618,891.539 846,916.5C 842.571,925.217 840.237,934.217 839,943.5C 838.095,955.514 837.095,967.514 836,979.5C 830.374,1001.79 816.541,1016.29 794.5,1023C 759.069,1029.37 734.902,1015.87 722,982.5C 715.889,910.09 737.556,847.423 787,794.5C 799.57,781.926 812.737,770.093 826.5,759C 857.872,737.981 888.539,715.981 918.5,693C 932.802,680.368 945.302,666.202 956,650.5C 973.642,618.668 978.309,585.002 970,549.5C 961.789,524.587 947.289,504.087 926.5,488C 907.568,473.367 886.568,462.7 863.5,456C 824.83,447.416 786.163,447.416 747.5,456C 694.461,470.041 656.295,501.875 633,551.5C 627.786,564.356 624.453,577.689 623,591.5C 612.145,621.67 590.645,635.837 558.5,634C 532.858,629.359 516.358,614.526 509,589.5C 506.705,571.18 508.372,553.18 514,535.5C 535.794,467.071 576.961,413.571 637.5,375C 682.154,349.338 730.154,335.172 781.5,332.5 Z"/></g>
<g><path style="opacity:1" fill="#03b8e5" d="M 773.5,1098.5 C 815.757,1100.93 843.257,1122.27 856,1162.5C 863.532,1204.59 849.032,1236.42 812.5,1258C 778.084,1272.87 746.417,1268.54 717.5,1245C 689.118,1215.14 683.285,1181.31 700,1143.5C 716.286,1115.11 740.786,1100.11 773.5,1098.5 Z"/></g>
</svg>
