<?xml version="1.0" encoding="UTF-8"?>
<!DOCTYPE svg PUBLIC "-//W3C//DTD SVG 1.1//EN" "http://www.w3.org/Graphics/SVG/1.1/DTD/svg11.dtd">
<svg xmlns="http://www.w3.org/2000/svg" version="1.1" width="2000px" height="1867px" style="shape-rendering:geometricPrecision; text-rendering:geometricPrecision; image-rendering:optimizeQuality; fill-rule:evenodd; clip-rule:evenodd" xmlns:xlink="http://www.w3.org/1999/xlink">
<g><path style="opacity:1" fill="#03b8e5" d="M 983.5,-0.5 C 994.167,-0.5 1004.83,-0.5 1015.5,-0.5C 1040.08,2.52847 1062.41,11.3618 1082.5,26C 1165.95,105.154 1249.12,184.654 1332,264.5C 1332.03,215.801 1332.7,167.135 1334,118.5C 1342.28,87.8869 1362.11,70.3869 1393.5,66C 1464.17,65.3333 1534.83,65.3333 1605.5,66C 1639.42,71.2552 1659.59,90.7552 1666,124.5C 1666.33,278.167 1666.67,431.833 1667,585.5C 1773.64,687.136 1879.97,789.136 1986,891.5C 1992.74,900.97 1997.24,911.303 1999.5,922.5C 1999.5,929.5 1999.5,936.5 1999.5,943.5C 1992.79,973.374 1974.46,991.874 1944.5,999C 1922.99,1002.21 1903.99,996.876 1887.5,983C 1858.64,954.47 1829.47,926.303 1800,898.5C 1799.67,1181.83 1799.33,1465.17 1799,1748.5C 1791.38,1800.94 1763.21,1837.44 1714.5,1858C 1703.64,1861.93 1692.64,1864.76 1681.5,1866.5C 1539.5,1866.5 1397.5,1866.5 1255.5,1866.5C 1225.18,1859.68 1206.68,1841.01 1200,1810.5C 1199.67,1617.17 1199.33,1423.83 1199,1230.5C 1196.92,1215.09 1188.42,1205.26 1173.5,1201C 1057.5,1200.33 941.5,1200.33 825.5,1201C 810.576,1205.26 802.076,1215.09 800,1230.5C 799.667,1423.83 799.333,1617.17 799,1810.5C 792.32,1841.01 773.82,1859.68 743.5,1866.5C 601.5,1866.5 459.5,1866.5 317.5,1866.5C 260.102,1857.2 222.269,1824.86 204,1769.5C 202.281,1762.57 200.948,1755.57 200,1748.5C 199.667,1465.17 199.333,1181.83 199,898.5C 169.53,926.303 140.363,954.47 111.5,983C 90.179,1000.26 66.5123,1004.26 40.5,995C 17.6583,985.006 3.99168,967.839 -0.5,943.5C -0.5,936.5 -0.5,929.5 -0.5,922.5C 1.75909,911.303 6.25909,900.97 13,891.5C 21.8333,882.667 30.6667,873.833 39.5,865C 329.803,587.698 619.803,310.031 909.5,32C 930.899,13.7012 955.566,2.86789 983.5,-0.5 Z M 997.5,133.5 C 998.873,133.343 1000.21,133.51 1001.5,134C 1222.67,345.833 1443.83,557.667 1665,769.5C 1665.5,1090.5 1665.67,1411.5 1665.5,1732.5C 1554.83,1732.5 1444.17,1732.5 1333.5,1732.5C 1333.67,1563.5 1333.5,1394.5 1333,1225.5C 1327.47,1156.91 1293.64,1108.07 1231.5,1079C 1216.44,1072.65 1200.77,1068.65 1184.5,1067C 1061.17,1066.33 937.833,1066.33 814.5,1067C 756.704,1074.84 713.537,1104.01 685,1154.5C 673.516,1176.77 667.182,1200.44 666,1225.5C 665.5,1394.5 665.333,1563.5 665.5,1732.5C 554.833,1732.5 444.167,1732.5 333.5,1732.5C 333.333,1411.5 333.5,1090.5 334,769.5C 555.365,557.633 776.532,345.633 997.5,133.5 Z M 1466.5,199.5 C 1488.5,199.5 1510.5,199.5 1532.5,199.5C 1532.67,285.167 1532.5,370.834 1532,456.5C 1510.33,435.5 1488.67,414.5 1467,393.5C 1466.5,328.834 1466.33,264.168 1466.5,199.5 Z"/></g>
</svg>
