<?xml version="1.0" encoding="UTF-8"?>
<!DOCTYPE svg PUBLIC "-//W3C//DTD SVG 1.1//EN" "http://www.w3.org/Graphics/SVG/1.1/DTD/svg11.dtd">
<svg xmlns="http://www.w3.org/2000/svg" version="1.1" width="1333px" height="1533px" style="shape-rendering:geometricPrecision; text-rendering:geometricPrecision; image-rendering:optimizeQuality; fill-rule:evenodd; clip-rule:evenodd" xmlns:xlink="http://www.w3.org/1999/xlink">
<g><path style="opacity:1" fill="#03b8e5" d="M 137.5,-0.5 C 148.167,-0.5 158.833,-0.5 169.5,-0.5C 190.766,2.32486 210.766,9.1582 229.5,20C 574.833,226.667 920.167,433.333 1265.5,640C 1304.26,666.331 1326.59,702.831 1332.5,749.5C 1332.5,760.5 1332.5,771.5 1332.5,782.5C 1326.59,829.169 1304.26,865.669 1265.5,892C 920.167,1098.67 574.833,1305.33 229.5,1512C 210.766,1522.84 190.766,1529.68 169.5,1532.5C 158.833,1532.5 148.167,1532.5 137.5,1532.5C 79.341,1523.33 37.841,1491.99 13,1438.5C 6.12576,1422 1.62576,1405 -0.5,1387.5C -0.5,973.167 -0.5,558.833 -0.5,144.5C 6.46702,88.3698 34.1337,45.8698 82.5,17C 99.9246,7.90175 118.258,2.06841 137.5,-0.5 Z M 149.5,133.5 C 154.618,132.889 159.285,134.056 163.5,137C 506.334,342.585 849.334,547.918 1192.5,753C 1196.99,756.113 1198.99,760.446 1198.5,766C 1198.99,771.554 1196.99,775.887 1192.5,779C 849.334,984.082 506.334,1189.42 163.5,1395C 150.906,1400.97 141.739,1397.47 136,1384.5C 135.178,1382.21 134.511,1379.88 134,1377.5C 133.333,969.833 133.333,562.167 134,154.5C 136.009,145.014 141.176,138.014 149.5,133.5 Z"/></g>
</svg>
