<?xml version="1.0" encoding="UTF-8"?>
<!DOCTYPE svg PUBLIC "-//W3C//DTD SVG 1.1//EN" "http://www.w3.org/Graphics/SVG/1.1/DTD/svg11.dtd">
<svg xmlns="http://www.w3.org/2000/svg" version="1.1" width="3208px" height="3208px" style="shape-rendering:geometricPrecision; text-rendering:geometricPrecision; image-rendering:optimizeQuality; fill-rule:evenodd; clip-rule:evenodd" xmlns:xlink="http://www.w3.org/1999/xlink">
<g><path style="opacity:0.999" fill="#000000" d="M 872.5,611.5 C 871.833,611.5 871.5,611.833 871.5,612.5C 871.5,1273.17 871.5,1933.83 871.5,2594.5C 871.5,2595.17 871.833,2595.5 872.5,2595.5C 872.44,2596.04 872.107,2596.38 871.5,2596.5C 871.167,2265.5 870.833,1934.5 870.5,1603.5C 870.833,1272.5 871.167,941.5 871.5,610.5C 872.107,610.624 872.44,610.957 872.5,611.5 Z"/></g>
<g><path style="opacity:1" fill="#02b7e4" d="M 871.5,612.5 C 1443.8,942.316 2015.8,1272.65 2587.5,1603.5C 2015.8,1934.35 1443.8,2264.68 871.5,2594.5C 871.5,1933.83 871.5,1273.17 871.5,612.5 Z"/></g>
<g><path style="opacity:0.426" fill="#050f12" d="M 871.5,612.5 C 871.5,611.833 871.833,611.5 872.5,611.5C 1445.47,941.653 2018.14,1272.32 2590.5,1603.5C 2018.14,1934.68 1445.47,2265.35 872.5,2595.5C 871.833,2595.5 871.5,2595.17 871.5,2594.5C 1443.8,2264.68 2015.8,1934.35 2587.5,1603.5C 2015.8,1272.65 1443.8,942.316 871.5,612.5 Z"/></g>
</svg>
