<?xml version="1.0" encoding="UTF-8"?>
<!DOCTYPE svg PUBLIC "-//W3C//DTD SVG 1.1//EN" "http://www.w3.org/Graphics/SVG/1.1/DTD/svg11.dtd">
<svg xmlns="http://www.w3.org/2000/svg" version="1.1" width="1867px" height="1867px" style="shape-rendering:geometricPrecision; text-rendering:geometricPrecision; image-rendering:optimizeQuality; fill-rule:evenodd; clip-rule:evenodd" xmlns:xlink="http://www.w3.org/1999/xlink">
<g><path style="opacity:1" fill="#03b8e5" d="M 237.5,-0.5 C 617.5,-0.5 997.5,-0.5 1377.5,-0.5C 1421.48,4.21175 1460.14,21.0451 1493.5,50C 1601,157.5 1708.5,265 1816,372.5C 1844.95,405.857 1861.79,444.523 1866.5,488.5C 1866.5,868.167 1866.5,1247.83 1866.5,1627.5C 1855.12,1725.35 1805.79,1796.85 1718.5,1842C 1689.43,1855.35 1659.1,1863.52 1627.5,1866.5C 1164.17,1866.5 700.833,1866.5 237.5,1866.5C 134.999,1854.15 62.1658,1801.15 19,1707.5C 8.73243,1681.97 2.23243,1655.63 -0.5,1628.5C -0.5,1164.83 -0.5,701.167 -0.5,237.5C 11.8472,134.999 64.8472,62.1658 158.5,19C 184.033,8.73243 210.366,2.23243 237.5,-0.5 Z M 244.5,133.5 C 621.2,133.003 997.867,133.503 1374.5,135C 1384.94,137.553 1394.27,142.219 1402.5,149C 1507.33,253.833 1612.17,358.667 1717,463.5C 1724.97,473.103 1729.97,484.103 1732,496.5C 1732.67,871.167 1732.67,1245.83 1732,1620.5C 1722.9,1676.21 1691.4,1712.38 1637.5,1729C 1631.88,1730.26 1626.21,1731.26 1620.5,1732C 1161.83,1732.67 703.167,1732.67 244.5,1732C 190.624,1723.46 155.124,1693.29 138,1641.5C 136.154,1634.94 134.82,1628.27 134,1621.5C 133.333,1162.5 133.333,703.5 134,244.5C 142.542,190.624 172.709,155.124 224.5,138C 231.259,136.285 237.925,134.785 244.5,133.5 Z M 333.5,333.5 C 599.833,333.5 866.167,333.5 1132.5,333.5C 1132.5,422.167 1132.5,510.833 1132.5,599.5C 866.167,599.5 599.833,599.5 333.5,599.5C 333.5,510.833 333.5,422.167 333.5,333.5 Z M 917.5,1133.5 C 987.715,1130.71 1045.22,1156.04 1090,1209.5C 1136.05,1272.57 1144.71,1340.57 1116,1413.5C 1089.7,1469.13 1047.2,1506.29 988.5,1525C 906.223,1544.9 836.723,1523.74 780,1461.5C 735.723,1405.78 723.056,1343.45 742,1274.5C 763.673,1209.49 806.84,1165.66 871.5,1143C 886.697,1138.46 902.03,1135.29 917.5,1133.5 Z"/></g>
<g><path style="opacity:1" fill="#03b8e5" d="M 317.5,199.5 C 594.5,199.333 871.5,199.5 1148.5,200C 1197.71,207.172 1233.21,233.006 1255,277.5C 1259.88,288.369 1263.22,299.702 1265,311.5C 1266.65,412.141 1266.98,512.807 1266,613.5C 1258.11,668.054 1228.61,705.554 1177.5,726C 1166.12,729.762 1154.45,732.095 1142.5,733C 869.5,733.667 596.5,733.667 323.5,733C 272.761,727.569 235.594,702.403 212,657.5C 205.768,643.803 201.768,629.47 200,614.5C 199.333,515.5 199.333,416.5 200,317.5C 207.624,265.059 235.791,228.559 284.5,208C 295.356,204.07 306.356,201.236 317.5,199.5 Z M 333.5,333.5 C 333.5,422.167 333.5,510.833 333.5,599.5C 599.833,599.5 866.167,599.5 1132.5,599.5C 1132.5,510.833 1132.5,422.167 1132.5,333.5C 866.167,333.5 599.833,333.5 333.5,333.5 Z"/></g>
<g><path style="opacity:1" fill="#03b8e5" d="M 911.5,999.5 C 1033.06,995.706 1130.56,1041.71 1204,1137.5C 1265.94,1228.15 1281.94,1326.48 1252,1432.5C 1218.65,1532.85 1153.15,1603.35 1055.5,1644C 957.661,1679.71 862.661,1673.37 770.5,1625C 684.877,1575.33 630.377,1502.16 607,1405.5C 584.068,1283.66 615.901,1178.82 702.5,1091C 761.487,1036.52 831.154,1006.02 911.5,999.5 Z M 917.5,1133.5 C 902.03,1135.29 886.697,1138.46 871.5,1143C 806.84,1165.66 763.673,1209.49 742,1274.5C 723.056,1343.45 735.723,1405.78 780,1461.5C 836.723,1523.74 906.223,1544.9 988.5,1525C 1047.2,1506.29 1089.7,1469.13 1116,1413.5C 1144.71,1340.57 1136.05,1272.57 1090,1209.5C 1045.22,1156.04 987.715,1130.71 917.5,1133.5 Z"/></g>
</svg>
