<?xml version="1.0" encoding="UTF-8"?>
<!DOCTYPE svg PUBLIC "-//W3C//DTD SVG 1.1//EN" "http://www.w3.org/Graphics/SVG/1.1/DTD/svg11.dtd">
<svg xmlns="http://www.w3.org/2000/svg" version="1.1" width="1867px" height="1917px" style="shape-rendering:geometricPrecision; text-rendering:geometricPrecision; image-rendering:optimizeQuality; fill-rule:evenodd; clip-rule:evenodd" xmlns:xlink="http://www.w3.org/1999/xlink">
<g><path style="opacity:1" fill="#03b8e5" d="M 741.5,-0.5 C 869.167,-0.5 996.833,-0.5 1124.5,-0.5C 1177.27,9.10516 1209.77,40.1052 1222,92.5C 1231.18,159.232 1240.68,225.898 1250.5,292.5C 1284.98,309.563 1317.98,328.897 1349.5,350.5C 1410.72,325.39 1472.05,300.557 1533.5,276C 1583.61,258.485 1626.77,268.985 1663,307.5C 1666.33,312.167 1669.67,316.833 1673,321.5C 1730.75,421.997 1788.75,522.33 1847,622.5C 1856.92,638.318 1863.42,655.318 1866.5,673.5C 1866.5,682.833 1866.5,692.167 1866.5,701.5C 1862.68,728.315 1851.01,751.148 1831.5,770C 1775.71,813.293 1720.38,857.126 1665.5,901.5C 1669.3,939.197 1669.47,976.864 1666,1014.5C 1720.55,1058.05 1775.38,1101.21 1830.5,1144C 1850.87,1163.25 1862.87,1186.75 1866.5,1214.5C 1866.5,1222.83 1866.5,1231.17 1866.5,1239.5C 1864.35,1254.12 1859.85,1268.12 1853,1281.5C 1791.07,1389.09 1728.73,1496.43 1666,1603.5C 1630.97,1644.05 1587.8,1656.22 1536.5,1640C 1473.69,1614.18 1410.69,1589.18 1347.5,1565C 1316.4,1586.31 1283.9,1605.48 1250,1622.5C 1240.76,1688.85 1231.43,1755.18 1222,1821.5C 1210.64,1875.03 1178.14,1906.69 1124.5,1916.5C 996.833,1916.5 869.167,1916.5 741.5,1916.5C 688.725,1906.89 656.225,1875.89 644,1823.5C 634.824,1756.77 625.324,1690.1 615.5,1623.5C 581.021,1606.44 548.021,1587.1 516.5,1565.5C 455.28,1590.61 393.947,1615.44 332.5,1640C 282.394,1657.51 239.227,1647.01 203,1608.5C 199.667,1603.83 196.333,1599.17 193,1594.5C 135.253,1494 77.2526,1393.67 19,1293.5C 9.07854,1277.68 2.57854,1260.68 -0.5,1242.5C -0.5,1233.17 -0.5,1223.83 -0.5,1214.5C 4.80248,1180.03 21.8025,1152.86 50.5,1133C 100.091,1094.29 149.591,1055.45 199,1016.5C 199.167,1014.33 199.333,1012.17 199.5,1010C 198.088,992.697 197.421,975.363 197.5,958C 197.65,938.806 198.15,919.639 199,900.5C 144.409,857.787 89.9092,814.954 35.5,772C 15.1259,752.751 3.12586,729.251 -0.5,701.5C -0.5,693.167 -0.5,684.833 -0.5,676.5C 1.64975,661.88 6.14975,647.88 13,634.5C 74.9341,526.908 137.267,419.574 200,312.5C 235.032,271.947 278.198,259.78 329.5,276C 392.306,301.817 455.306,326.817 518.5,351C 549.6,329.691 582.1,310.524 616,293.5C 625.24,227.154 634.573,160.821 644,94.5C 655.358,40.9733 687.858,9.3066 741.5,-0.5 Z M 773.5,133.5 C 879.833,133.5 986.167,133.5 1092.5,133.5C 1101.21,198.954 1110.71,264.287 1121,329.5C 1131.06,364.149 1151.56,390.649 1182.5,409C 1217.31,425.559 1250.31,444.892 1281.5,467C 1319.62,487.243 1358.95,489.91 1399.5,475C 1455.39,452.046 1511.39,429.712 1567.5,408C 1620.29,499.085 1672.96,590.252 1725.5,681.5C 1677.62,720.208 1629.29,758.374 1580.5,796C 1548.87,823.259 1532.54,857.925 1531.5,900C 1536.24,948.508 1534.91,996.842 1527.5,1045C 1528.85,1068.38 1538.85,1087.05 1557.5,1101C 1614.08,1144.45 1670.08,1188.62 1725.5,1233.5C 1672.5,1324.83 1619.5,1416.17 1566.5,1507.5C 1507.37,1483.18 1448.03,1459.34 1388.5,1436C 1352.51,1425.87 1317.84,1429.21 1284.5,1446C 1250.14,1469.52 1214.14,1490.52 1176.5,1509C 1147.98,1528.5 1129.15,1555 1120,1588.5C 1110.13,1653.07 1100.97,1717.74 1092.5,1782.5C 986.167,1782.5 879.833,1782.5 773.5,1782.5C 764.792,1717.05 755.292,1651.71 745,1586.5C 734.937,1551.85 714.437,1525.35 683.5,1507C 648.692,1490.44 615.692,1471.11 584.5,1449C 546.382,1428.76 507.048,1426.09 466.5,1441C 410.615,1463.95 354.615,1486.29 298.5,1508C 245.707,1416.92 193.04,1325.75 140.5,1234.5C 192.165,1193.01 243.998,1151.67 296,1110.5C 320.626,1084.15 333.459,1052.82 334.5,1016.5C 332.545,996.891 331.545,977.225 331.5,957.5C 332.761,933.179 333.261,908.846 333,884.5C 328.121,849.905 312.621,821.072 286.5,798C 237.378,760.041 188.711,721.541 140.5,682.5C 193.5,591.167 246.5,499.833 299.5,408.5C 358.634,432.823 417.967,456.656 477.5,480C 512.669,489.84 546.669,486.84 579.5,471C 614.528,447.142 651.194,425.809 689.5,407C 718.017,387.496 736.85,360.996 746,327.5C 755.868,262.928 765.034,198.261 773.5,133.5 Z M 916.5,758.5 C 998.987,755.986 1062.15,789.319 1106,858.5C 1140.22,922.667 1141.22,987.334 1109,1052.5C 1073.67,1114.1 1020.5,1148.93 949.5,1157C 864.129,1160.41 799.962,1125.58 757,1052.5C 725.667,989.505 725.667,926.505 757,863.5C 792.483,801.885 845.65,766.885 916.5,758.5 Z"/></g>
<g><path style="opacity:1" fill="#03b8e5" d="M 910.5,624.5 C 1033.87,620.444 1132.37,667.444 1206,765.5C 1269.89,861.771 1283.23,964.771 1246,1074.5C 1209.17,1168.67 1143.67,1234.17 1049.5,1271C 950.395,1305.24 855.062,1296.91 763.5,1246C 665.47,1184.86 610.97,1096.36 600,980.5C 595.416,858.524 641.25,760.69 737.5,687C 789.444,650.407 847.11,629.574 910.5,624.5 Z M 916.5,758.5 C 845.65,766.885 792.483,801.885 757,863.5C 725.667,926.505 725.667,989.505 757,1052.5C 799.962,1125.58 864.129,1160.41 949.5,1157C 1020.5,1148.93 1073.67,1114.1 1109,1052.5C 1141.22,987.334 1140.22,922.667 1106,858.5C 1062.15,789.319 998.987,755.986 916.5,758.5 Z"/></g>
</svg>
