<?xml version="1.0" encoding="UTF-8"?>
<!DOCTYPE svg PUBLIC "-//W3C//DTD SVG 1.1//EN" "http://www.w3.org/Graphics/SVG/1.1/DTD/svg11.dtd">
<svg xmlns="http://www.w3.org/2000/svg" version="1.1" width="1467px" height="1467px" style="shape-rendering:geometricPrecision; text-rendering:geometricPrecision; image-rendering:optimizeQuality; fill-rule:evenodd; clip-rule:evenodd" xmlns:xlink="http://www.w3.org/1999/xlink">
<g><path style="opacity:1" fill="#03b8e5" d="M 149.5,-0.5 C 538.5,-0.5 927.5,-0.5 1316.5,-0.5C 1389.82,10.3109 1437.98,50.9775 1461,121.5C 1463.18,130.909 1465.01,140.242 1466.5,149.5C 1466.5,538.5 1466.5,927.5 1466.5,1316.5C 1455.69,1389.82 1415.02,1437.98 1344.5,1461C 1335.09,1463.18 1325.76,1465.01 1316.5,1466.5C 927.5,1466.5 538.5,1466.5 149.5,1466.5C 76.1847,1455.69 28.018,1415.02 5,1344.5C 2.8248,1335.09 0.99147,1325.76 -0.5,1316.5C -0.5,927.5 -0.5,538.5 -0.5,149.5C 10.3109,76.1847 50.9775,28.018 121.5,5C 130.909,2.8248 140.242,0.99147 149.5,-0.5 Z M 159.5,133.5 C 541.833,133.333 924.167,133.5 1306.5,134C 1319.67,137.833 1328.17,146.333 1332,159.5C 1332.67,541.833 1332.67,924.167 1332,1306.5C 1328.17,1319.67 1319.67,1328.17 1306.5,1332C 924.167,1332.67 541.833,1332.67 159.5,1332C 146.333,1328.17 137.833,1319.67 134,1306.5C 133.333,924.167 133.333,541.833 134,159.5C 138.017,146.318 146.517,137.651 159.5,133.5 Z"/></g>
</svg>
